<svg width="122" height="122" viewBox="0 0 122 122" fill="none" xmlns="http://www.w3.org/2000/svg">
<circle cx="61" cy="61" r="60.5" stroke="black"/>
<path d="M58.75 42.7812C58.75 44.5 58.476 46.1257 57.9279 47.6582C57.3798 49.1908 56.4712 50.5156 55.2019 51.6328C53.9327 52.75 52.4183 53.3086 50.6587 53.3086C48.4663 53.3086 46.476 52.485 44.6875 50.8379C42.899 49.1908 41.5721 47.25 40.7067 45.0156C39.8413 42.7812 39.4087 40.6185 39.4087 38.5273C39.4087 36.8086 39.6827 35.1829 40.2308 33.6504C40.7788 32.1178 41.6875 30.793 42.9567 29.6758C44.226 28.5586 45.7404 28 47.5 28C49.7212 28 51.7188 28.8236 53.4928 30.4707C55.2668 32.1178 56.5865 34.0514 57.4519 36.2715C58.3173 38.4915 58.75 40.6615 58.75 42.7812ZM43.9519 63.5352C43.9519 65.8268 43.3462 67.8177 42.1346 69.5078C40.9231 71.1979 39.2067 72.043 36.9856 72.043C34.7933 72.043 32.7524 71.248 30.863 69.6582C28.9736 68.0684 27.524 66.1562 26.5144 63.9219C25.5048 61.6875 25 59.5104 25 57.3906C25 55.099 25.6058 53.1009 26.8173 51.3965C28.0288 49.6921 29.7452 48.8398 31.9663 48.8398C34.1587 48.8398 36.1995 49.6348 38.0889 51.2246C39.9784 52.8145 41.4279 54.7337 42.4375 56.9824C43.4471 59.2311 43.9519 61.4154 43.9519 63.5352ZM61 62.375C64.4038 62.375 68.0817 63.7715 72.0337 66.5645C75.9856 69.3574 79.2885 72.752 81.9423 76.748C84.5962 80.7441 85.9231 84.3893 85.9231 87.6836C85.9231 89.0013 85.6779 90.097 85.1875 90.9707C84.6971 91.8444 83.9976 92.4889 83.0889 92.9043C82.1803 93.3197 81.25 93.6061 80.2981 93.7637C79.3462 93.9212 78.25 94 77.0096 94C75.0481 94 72.3438 93.3555 68.8966 92.0664C65.4495 90.7773 62.8173 90.1328 61 90.1328C59.0962 90.1328 56.3197 90.7702 52.6707 92.0449C49.0216 93.3197 46.1298 93.957 43.9952 93.957C38.7163 93.957 36.0769 91.8659 36.0769 87.6836C36.0769 85.2201 36.8846 82.4772 38.5 79.4551C40.1154 76.4329 42.1274 73.6758 44.5361 71.1836C46.9447 68.6914 49.649 66.6003 52.649 64.9102C55.649 63.2201 58.4327 62.375 61 62.375ZM71.3413 53.3086C69.5817 53.3086 68.0673 52.75 66.7981 51.6328C65.5288 50.5156 64.6202 49.1908 64.0721 47.6582C63.524 46.1257 63.25 44.5 63.25 42.7812C63.25 40.6615 63.6827 38.4915 64.5481 36.2715C65.4135 34.0514 66.7332 32.1178 68.5072 30.4707C70.2813 28.8236 72.2788 28 74.5 28C76.2596 28 77.774 28.5586 79.0433 29.6758C80.3125 30.793 81.2212 32.1178 81.7692 33.6504C82.3173 35.1829 82.5913 36.8086 82.5913 38.5273C82.5913 40.6185 82.1587 42.7812 81.2933 45.0156C80.4279 47.25 79.101 49.1908 77.3125 50.8379C75.524 52.485 73.5337 53.3086 71.3413 53.3086ZM90.0337 48.8398C92.2548 48.8398 93.9712 49.6921 95.1827 51.3965C96.3942 53.1009 97 55.099 97 57.3906C97 59.5104 96.4952 61.6875 95.4856 63.9219C94.476 66.1562 93.0264 68.0684 91.137 69.6582C89.2476 71.248 87.2067 72.043 85.0144 72.043C82.7933 72.043 81.0769 71.1979 79.8654 69.5078C78.6538 67.8177 78.0481 65.8268 78.0481 63.5352C78.0481 61.4154 78.5529 59.2311 79.5625 56.9824C80.5721 54.7337 82.0216 52.8145 83.9111 51.2246C85.8005 49.6348 87.8413 48.8398 90.0337 48.8398Z" fill="#00DDC6"/>
</svg>
