<svg width="22" height="22" viewBox="0 0 22 22" fill="none" xmlns="http://www.w3.org/2000/svg">
<path d="M0 0.71875C0 0.528126 0.0757252 0.345309 0.210517 0.210517C0.345309 0.0757252 0.528126 0 0.71875 0H2.875C3.03533 4.42915e-05 3.19103 0.0536916 3.31736 0.152411C3.44369 0.25113 3.53339 0.389252 3.57219 0.544812L4.15438 2.875H20.8438C20.9493 2.8751 21.0535 2.89844 21.149 2.94335C21.2445 2.98827 21.3289 3.05367 21.3963 3.13491C21.4637 3.21614 21.5123 3.31121 21.5388 3.41337C21.5653 3.51553 21.569 3.62227 21.5496 3.726L19.3933 15.226C19.3625 15.3907 19.2751 15.5395 19.1462 15.6466C19.0173 15.7536 18.8551 15.8123 18.6875 15.8125H5.75C5.58243 15.8123 5.42019 15.7536 5.29131 15.6466C5.16243 15.5395 5.07502 15.3907 5.04419 15.226L2.88937 3.74756L2.31437 1.4375H0.71875C0.528126 1.4375 0.345309 1.36177 0.210517 1.22698C0.0757252 1.09219 0 0.909374 0 0.71875ZM4.45913 4.3125L6.34656 14.375H18.0909L19.9784 4.3125H4.45913ZM7.1875 15.8125C6.425 15.8125 5.69374 16.1154 5.15457 16.6546C4.6154 17.1937 4.3125 17.925 4.3125 18.6875C4.3125 19.45 4.6154 20.1813 5.15457 20.7204C5.69374 21.2596 6.425 21.5625 7.1875 21.5625C7.95 21.5625 8.68126 21.2596 9.22043 20.7204C9.7596 20.1813 10.0625 19.45 10.0625 18.6875C10.0625 17.925 9.7596 17.1937 9.22043 16.6546C8.68126 16.1154 7.95 15.8125 7.1875 15.8125ZM17.25 15.8125C16.4875 15.8125 15.7562 16.1154 15.2171 16.6546C14.6779 17.1937 14.375 17.925 14.375 18.6875C14.375 19.45 14.6779 20.1813 15.2171 20.7204C15.7562 21.2596 16.4875 21.5625 17.25 21.5625C18.0125 21.5625 18.7438 21.2596 19.2829 20.7204C19.8221 20.1813 20.125 19.45 20.125 18.6875C20.125 17.925 19.8221 17.1937 19.2829 16.6546C18.7438 16.1154 18.0125 15.8125 17.25 15.8125ZM7.1875 17.25C7.56875 17.25 7.93438 17.4015 8.20397 17.671C8.47355 17.9406 8.625 18.3063 8.625 18.6875C8.625 19.0687 8.47355 19.4344 8.20397 19.704C7.93438 19.9735 7.56875 20.125 7.1875 20.125C6.80625 20.125 6.44062 19.9735 6.17103 19.704C5.90145 19.4344 5.75 19.0687 5.75 18.6875C5.75 18.3063 5.90145 17.9406 6.17103 17.671C6.44062 17.4015 6.80625 17.25 7.1875 17.25ZM17.25 17.25C17.6312 17.25 17.9969 17.4015 18.2665 17.671C18.536 17.9406 18.6875 18.3063 18.6875 18.6875C18.6875 19.0687 18.536 19.4344 18.2665 19.704C17.9969 19.9735 17.6312 20.125 17.25 20.125C16.8688 20.125 16.5031 19.9735 16.2335 19.704C15.964 19.4344 15.8125 19.0687 15.8125 18.6875C15.8125 18.3063 15.964 17.9406 16.2335 17.671C16.5031 17.4015 16.8688 17.25 17.25 17.25Z" fill="black"/>
</svg>
