<svg width="122" height="122" viewBox="0 0 122 122" fill="none" xmlns="http://www.w3.org/2000/svg">
<circle cx="61" cy="61" r="60.5" stroke="black"/>
<path d="M99.5781 62.7974C103.516 64.7504 106 68.7814 106 73.1874V73.8728C106 79.4272 102.33 84.5519 96.9 85.7284C90.9344 87.0196 85.1875 83.5832 83.3438 78.0507C83.3383 78.0346 83.3331 78.0184 83.3277 78.0018C82.4531 75.3279 80 73.4999 77.1875 73.4999H44.8125C42.0172 73.4999 39.5578 75.3076 38.6828 77.9621L38.6562 78.0465C36.8125 83.579 31.0656 87.0147 25.1 85.7242C19.6703 84.5461 16 79.4214 16 73.8749V73.1895C16 68.7814 18.4813 64.7504 22.4266 62.7974C23.8914 62.0553 23.8914 59.946 22.4266 59.2039C18.4813 57.2509 16 53.2355 16 48.8138V48.1264C16 42.572 19.6703 37.4473 25.1 36.2708C31.0656 34.9797 36.8172 38.4301 38.6609 43.9626C39.5469 46.6421 42 48.5014 44.8125 48.5014H77.1875C79.9828 48.5014 82.4422 46.6937 83.3172 44.0391L83.3438 43.9548C85.1875 38.4223 90.9344 34.9865 96.9 36.2771C102.328 37.4551 106 42.5798 106 48.1264V48.8118C106 53.2355 103.516 57.2509 99.5781 59.2039C98.1094 59.9538 98.1094 62.0631 99.5781 62.7974Z" fill="#00DDC6"/>
</svg>
