<svg width="122" height="122" viewBox="0 0 122 122" fill="none" xmlns="http://www.w3.org/2000/svg">
<circle cx="61" cy="61" r="60.5" stroke="black"/>
<path d="M54.1057 33.9611C56.0629 32.6815 58.3507 32 60.6892 32C63.0276 32 65.3154 32.6815 67.2727 33.9611L93.289 50.9684C93.6212 51.1856 93.8945 51.4816 94.0846 51.8299C94.2746 52.1783 94.3756 52.5683 94.3785 52.9651C94.3813 53.3619 94.286 53.7533 94.1009 54.1044C93.9159 54.4555 93.6469 54.7553 93.3179 54.9773L67.4363 72.4948C65.4452 73.8427 63.096 74.5631 60.6916 74.5631C58.2872 74.5631 55.9379 73.8427 53.9468 72.4948L31.8142 57.5231V72.7161C31.8142 73.3543 31.5606 73.9664 31.1094 74.4176C30.6581 74.8689 30.0461 75.1224 29.4079 75.1224C28.7697 75.1224 28.1577 74.8689 27.7064 74.4176C27.2552 73.9664 27.0017 73.3543 27.0017 72.7161V53.4661C27.0017 53.3891 27.0017 53.3073 27.0113 53.2255C26.9688 52.7875 27.0468 52.3462 27.2367 51.9493C27.4267 51.5524 27.7215 51.2149 28.0893 50.9733L54.1057 33.9659V33.9611ZM36.6267 77.5238V66.585L51.247 76.4843C54.0344 78.3712 57.3232 79.3797 60.6892 79.3797C64.0551 79.3797 67.3439 78.3712 70.1313 76.4843L84.7517 66.585V77.5286C84.7519 78.0999 84.5489 78.6526 84.179 79.0879L84.1742 79.0975L84.1645 79.1071L84.1357 79.1408L84.0394 79.2467C83.5433 79.788 83.0247 80.3082 82.485 80.8059C81.4262 81.7829 79.8766 83.0726 77.8746 84.3672C73.8802 86.9467 68.0138 89.5647 60.694 89.5647C53.3645 89.5647 47.5029 86.9467 43.5037 84.3672C41.8665 83.3139 40.3225 82.1225 38.8885 80.8059C38.3503 80.3082 37.8333 79.788 37.3389 79.2467L37.2427 79.1408L37.2138 79.1071L37.2042 79.0975L39.0329 77.5334C37.1993 79.0879 37.2042 79.0927 37.2042 79.0927C36.8325 78.6562 36.6279 78.1019 36.6267 77.5286V77.5238Z" fill="#00DDC6"/>
</svg>
