<svg width="182" height="72" viewBox="0 0 182 72" fill="none" xmlns="http://www.w3.org/2000/svg">
<path d="M103.805 34.3046L78.3233 36.8302C77.4257 36.8305 76.5369 36.6539 75.7075 36.3106C74.8782 35.9673 74.1246 35.464 73.4899 34.8294C72.8551 34.1948 72.3515 33.4414 72.008 32.6122C71.6644 31.7829 71.4876 30.8941 71.4876 29.9966V6.83447C71.4875 5.93699 71.6642 5.04828 72.0076 4.21909C72.3509 3.3899 72.8543 2.63647 73.4889 2.00182C74.1234 1.36717 74.8768 0.863732 75.706 0.520258C76.5351 0.176784 77.4238 -6.25056e-09 78.3213 0L103.805 2.52643C104.703 2.52643 105.591 2.7032 106.421 3.04665C107.25 3.3901 108.003 3.8935 108.638 4.5281C109.272 5.16271 109.776 5.9161 110.119 6.74524C110.462 7.57438 110.639 8.46305 110.639 9.36049V27.4709C110.639 29.2833 109.919 31.0215 108.637 32.3031C107.356 33.5846 105.618 34.3046 103.805 34.3046Z" fill="#00DDC6"/>
<path d="M85.2375 24.9045C85.8872 23.4775 84.7091 21.5445 82.6061 20.587C80.5032 19.6296 78.2717 20.0102 77.622 21.4371C76.9723 22.8641 78.1504 24.7971 80.2533 25.7546C82.3563 26.712 84.5878 26.3314 85.2375 24.9045Z" fill="white"/>
<path d="M98.7195 14.3751C100.135 13.7018 100.479 11.4643 99.4868 9.37755C98.4946 7.29077 96.5423 6.14489 95.1263 6.81816C93.7103 7.49143 93.3668 9.72891 94.359 11.8157C95.3512 13.9025 97.3035 15.0484 98.7195 14.3751Z" fill="white"/>
<path d="M90.921 12.3902C92.1737 11.4473 92.0627 9.18634 90.6731 7.34023C89.2834 5.49412 87.1414 4.76196 85.8887 5.70489C84.636 6.64783 84.7471 8.9088 86.1367 10.7549C87.5263 12.601 89.6683 13.3332 90.921 12.3902Z" fill="white"/>
<path d="M84.6092 17.5117C85.8619 16.5688 85.7509 14.3078 84.3612 12.4617C82.9716 10.6156 80.8296 9.88341 79.5769 10.8264C78.3242 11.7693 78.4352 14.0303 79.8249 15.8764C81.2145 17.7225 83.3565 18.4546 84.6092 17.5117Z" fill="white"/>
<path d="M100.099 16.52C99.5574 16.4137 99.0017 16.3981 98.4548 16.474C96.9869 16.6788 95.5081 16.3252 94.2048 15.6199C93.5543 15.2688 92.8336 15.0675 92.0953 15.0307C89.681 14.9045 87.4982 16.5845 86.9997 18.95C86.8187 19.7995 86.8643 20.6816 87.132 21.5079C87.5353 22.7507 87.6095 24.0855 87.2207 25.3332C87.1004 25.72 87.0276 26.1201 87.0038 26.5245C86.8574 28.971 88.568 31.1902 90.9718 31.6701C91.6386 31.8047 92.326 31.8006 92.9911 31.6581C93.6562 31.5157 94.285 31.2379 94.8381 30.842C95.3913 30.4461 95.8571 29.9406 96.2065 29.357C96.5559 28.7734 96.7814 28.1241 96.8691 27.4495C96.8691 27.4439 96.8691 27.4378 96.8691 27.4322C96.9627 26.6934 97.6297 26.1627 98.3652 26.2793C98.4108 26.2865 98.4572 26.293 98.5036 26.299C99.1785 26.3868 99.8642 26.3347 100.518 26.1459C101.172 25.9571 101.78 25.6357 102.304 25.2016C102.829 24.7676 103.258 24.2302 103.565 23.6231C103.873 23.0159 104.052 22.3519 104.092 21.6724C104.24 19.2154 102.515 16.9902 100.099 16.52Z" fill="white"/>
<path d="M0.776017 54.4069C0.776017 52.7765 1.12875 51.3264 1.83422 50.0565C2.53969 48.771 3.51951 47.7755 4.77368 47.0701C6.04352 46.3489 7.47798 45.9883 9.07704 45.9883C11.0367 45.9883 12.7141 46.5057 14.1094 47.5404C15.5047 48.5751 16.4374 49.986 16.9078 51.7732H12.4868C12.1576 51.0834 11.6873 50.5582 11.0759 50.1976C10.4801 49.8371 9.79819 49.6568 9.03001 49.6568C7.79152 49.6568 6.78818 50.0879 6.02001 50.9501C5.25183 51.8124 4.86774 52.9646 4.86774 54.4069C4.86774 55.8492 5.25183 57.0015 6.02001 57.8637C6.78818 58.726 7.79152 59.1571 9.03001 59.1571C9.79819 59.1571 10.4801 58.9768 11.0759 58.6162C11.6873 58.2557 12.1576 57.7305 12.4868 57.0407H16.9078C16.4374 58.8279 15.5047 60.2388 14.1094 61.2735C12.7141 62.2925 11.0367 62.802 9.07704 62.802C7.47798 62.802 6.04352 62.4493 4.77368 61.7438C3.51951 61.0227 2.53969 60.0272 1.83422 58.7573C1.12875 57.4875 0.776017 56.0374 0.776017 54.4069ZM27.4362 49.4216C28.9412 49.4216 30.1483 49.9233 31.0576 50.9266C31.9668 51.9143 32.4215 53.2782 32.4215 55.0183V62.6844H28.4238V55.5592C28.4238 54.6813 28.1965 53.9993 27.7419 53.5133C27.2872 53.0274 26.6758 52.7844 25.9076 52.7844C25.1395 52.7844 24.5281 53.0274 24.0734 53.5133C23.6188 53.9993 23.3915 54.6813 23.3915 55.5592V62.6844H19.3703V45.2829H23.3915V51.3264C23.7991 50.7463 24.3556 50.2839 25.0611 49.939C25.7665 49.5941 26.5582 49.4216 27.4362 49.4216ZM34.4163 56.1001C34.4163 54.7518 34.6671 53.5682 35.1688 52.5492C35.6861 51.5302 36.3837 50.7463 37.2617 50.1976C38.1396 49.6489 39.1194 49.3746 40.2011 49.3746C41.1261 49.3746 41.9334 49.5627 42.6232 49.939C43.3287 50.3152 43.8696 50.809 44.2458 51.4205V49.5627H48.267V62.6844H44.2458V60.8267C43.8539 61.4381 43.3052 61.9319 42.5997 62.3082C41.9099 62.6844 41.1025 62.8726 40.1776 62.8726C39.1116 62.8726 38.1396 62.5982 37.2617 62.0495C36.3837 61.4851 35.6861 60.6935 35.1688 59.6744C34.6671 58.6398 34.4163 57.4483 34.4163 56.1001ZM44.2458 56.1236C44.2458 55.1202 43.9636 54.3286 43.3992 53.7485C42.8505 53.1684 42.1764 52.8784 41.3769 52.8784C40.5774 52.8784 39.8954 53.1684 39.331 53.7485C38.7823 54.3129 38.508 55.0967 38.508 56.1001C38.508 57.1034 38.7823 57.9029 39.331 58.4987C39.8954 59.0787 40.5774 59.3687 41.3769 59.3687C42.1764 59.3687 42.8505 59.0787 43.3992 58.4987C43.9636 57.9186 44.2458 57.1269 44.2458 56.1236ZM55.1973 51.7497C55.6676 51.0285 56.2555 50.4641 56.961 50.0565C57.6664 49.6333 58.4503 49.4216 59.3125 49.4216V53.678H58.2073C57.204 53.678 56.4515 53.8974 55.9498 54.3364C55.4481 54.7597 55.1973 55.5122 55.1973 56.5939V62.6844H51.1761V49.5627H55.1973V51.7497ZM77.9777 49.4216C79.6081 49.4216 80.9015 49.9154 81.8578 50.9031C82.8298 51.8908 83.3158 53.2625 83.3158 55.0183V62.6844H79.3181V55.5592C79.3181 54.7126 79.0908 54.062 78.6362 53.6074C78.1972 53.1371 77.5858 52.9019 76.8019 52.9019C76.0181 52.9019 75.3988 53.1371 74.9442 53.6074C74.5052 54.062 74.2858 54.7126 74.2858 55.5592V62.6844H70.2881V55.5592C70.2881 54.7126 70.0608 54.062 69.6061 53.6074C69.1672 53.1371 68.5558 52.9019 67.7719 52.9019C66.9881 52.9019 66.3688 53.1371 65.9142 53.6074C65.4752 54.062 65.2558 54.7126 65.2558 55.5592V62.6844H61.2346V49.5627H65.2558V51.2088C65.6634 50.6601 66.1964 50.229 66.8548 49.9154C67.5133 49.5862 68.2579 49.4216 69.0888 49.4216C70.0765 49.4216 70.9544 49.6333 71.7226 50.0565C72.5064 50.4798 73.1178 51.0834 73.5568 51.8672C74.0114 51.1461 74.6307 50.5582 75.4145 50.1036C76.1984 49.6489 77.0528 49.4216 77.9777 49.4216ZM88.1504 48.1988C87.445 48.1988 86.8649 47.995 86.4103 47.5874C85.9713 47.1641 85.7518 46.6468 85.7518 46.0354C85.7518 45.4083 85.9713 44.8909 86.4103 44.4833C86.8649 44.0601 87.445 43.8484 88.1504 43.8484C88.8402 43.8484 89.4046 44.0601 89.8436 44.4833C90.2982 44.8909 90.5255 45.4083 90.5255 46.0354C90.5255 46.6468 90.2982 47.1641 89.8436 47.5874C89.4046 47.995 88.8402 48.1988 88.1504 48.1988ZM90.1493 49.5627V62.6844H86.1281V49.5627H90.1493ZM101.059 49.4216C102.595 49.4216 103.818 49.9233 104.727 50.9266C105.652 51.9143 106.115 53.2782 106.115 55.0183V62.6844H102.117V55.5592C102.117 54.6813 101.89 53.9993 101.435 53.5133C100.98 53.0274 100.369 52.7844 99.6007 52.7844C98.8326 52.7844 98.2211 53.0274 97.7665 53.5133C97.3119 53.9993 97.0846 54.6813 97.0846 55.5592V62.6844H93.0634V49.5627H97.0846V51.3029C97.4922 50.7228 98.0409 50.2682 98.7307 49.939C99.4204 49.5941 100.196 49.4216 101.059 49.4216ZM113.894 49.3746C114.819 49.3746 115.627 49.5627 116.316 49.939C117.022 50.3152 117.563 50.809 117.939 51.4205V49.5627H121.96V62.6609C121.96 63.8681 121.717 64.9576 121.231 65.9296C120.761 66.9173 120.032 67.7011 119.044 68.2812C118.072 68.8612 116.857 69.1513 115.399 69.1513C113.455 69.1513 111.88 68.6888 110.673 67.7638C109.465 66.8546 108.776 65.6161 108.603 64.0484H112.577C112.703 64.55 113.001 64.942 113.471 65.2241C113.941 65.522 114.521 65.6709 115.211 65.6709C116.042 65.6709 116.7 65.4279 117.186 64.942C117.688 64.4716 117.939 63.7113 117.939 62.6609V60.8032C117.547 61.4146 117.006 61.9163 116.316 62.3082C115.627 62.6844 114.819 62.8726 113.894 62.8726C112.812 62.8726 111.833 62.5982 110.955 62.0495C110.077 61.4851 109.379 60.6935 108.862 59.6744C108.36 58.6398 108.109 57.4483 108.109 56.1001C108.109 54.7518 108.36 53.5682 108.862 52.5492C109.379 51.5302 110.077 50.7463 110.955 50.1976C111.833 49.6489 112.812 49.3746 113.894 49.3746ZM117.939 56.1236C117.939 55.1202 117.657 54.3286 117.092 53.7485C116.544 53.1684 115.87 52.8784 115.07 52.8784C114.27 52.8784 113.588 53.1684 113.024 53.7485C112.475 54.3129 112.201 55.0967 112.201 56.1001C112.201 57.1034 112.475 57.9029 113.024 58.4987C113.588 59.0787 114.27 59.3687 115.07 59.3687C115.87 59.3687 116.544 59.0787 117.092 58.4987C117.657 57.9186 117.939 57.1269 117.939 56.1236Z" fill="black"/>
<path d="M126.75 62.8726C126.045 62.8726 125.465 62.6688 125.01 62.2612C124.571 61.8379 124.352 61.3205 124.352 60.7091C124.352 60.082 124.571 59.5569 125.01 59.1336C125.465 58.7103 126.045 58.4987 126.75 58.4987C127.44 58.4987 128.005 58.7103 128.444 59.1336C128.898 59.5569 129.126 60.082 129.126 60.7091C129.126 61.3205 128.898 61.8379 128.444 62.2612C128.005 62.6688 127.44 62.8726 126.75 62.8726ZM144.087 51.491C144.087 52.4473 143.867 53.3252 143.428 54.1248C142.989 54.9086 142.315 55.5435 141.406 56.0295C140.497 56.5155 139.368 56.7585 138.02 56.7585H135.527V62.6844H131.506V46.1765H138.02C139.337 46.1765 140.45 46.4038 141.359 46.8584C142.268 47.313 142.95 47.9401 143.405 48.7397C143.86 49.5392 144.087 50.4563 144.087 51.491ZM137.714 53.5604C138.482 53.5604 139.054 53.3801 139.431 53.0195C139.807 52.6589 139.995 52.1494 139.995 51.491C139.995 50.8326 139.807 50.3231 139.431 49.9625C139.054 49.6019 138.482 49.4216 137.714 49.4216H135.527V53.5604H137.714ZM158.55 55.9119C158.55 56.2882 158.526 56.6801 158.479 57.0877H149.378C149.441 57.9029 149.7 58.53 150.154 58.969C150.625 59.3923 151.197 59.6039 151.871 59.6039C152.874 59.6039 153.572 59.1806 153.964 58.3341H158.244C158.024 59.1963 157.625 59.9723 157.045 60.6621C156.48 61.3519 155.767 61.8928 154.905 62.2847C154.042 62.6766 153.078 62.8726 152.012 62.8726C150.727 62.8726 149.582 62.5982 148.579 62.0495C147.576 61.5008 146.792 60.717 146.227 59.698C145.663 58.6789 145.381 57.4875 145.381 56.1236C145.381 54.7597 145.655 53.5682 146.204 52.5492C146.768 51.5302 147.552 50.7463 148.555 50.1976C149.559 49.6489 150.711 49.3746 152.012 49.3746C153.282 49.3746 154.411 49.6411 155.398 50.1741C156.386 50.7071 157.154 51.4675 157.703 52.4551C158.267 53.4428 158.55 54.5951 158.55 55.9119ZM154.434 54.8537C154.434 54.1639 154.199 53.6152 153.729 53.2076C153.258 52.8 152.671 52.5962 151.965 52.5962C151.291 52.5962 150.719 52.7922 150.248 53.1841C149.794 53.5761 149.512 54.1326 149.402 54.8537H154.434ZM167.984 59.2747V62.6844H165.938C164.48 62.6844 163.344 62.3317 162.529 61.6262C161.713 60.9051 161.306 59.7372 161.306 58.1224V52.9019H159.707V49.5627H161.306V46.3646H165.327V49.5627H167.961V52.9019H165.327V58.1694C165.327 58.5614 165.421 58.8436 165.609 59.016C165.797 59.1885 166.111 59.2747 166.55 59.2747H167.984ZM175.562 62.8726C174.418 62.8726 173.399 62.6766 172.505 62.2847C171.612 61.8928 170.906 61.3597 170.389 60.6856C169.871 59.9958 169.581 59.2276 169.519 58.3811H173.493C173.54 58.8357 173.751 59.2041 174.128 59.4863C174.504 59.7685 174.966 59.9096 175.515 59.9096C176.017 59.9096 176.401 59.8155 176.667 59.6274C176.95 59.4236 177.091 59.1649 177.091 58.8514C177.091 58.4751 176.895 58.2008 176.503 58.0283C176.111 57.8402 175.476 57.6364 174.598 57.4169C173.657 57.1975 172.874 56.9701 172.246 56.735C171.619 56.4842 171.079 56.1001 170.624 55.5827C170.169 55.0497 169.942 54.3364 169.942 53.4428C169.942 52.6903 170.146 52.0083 170.553 51.3969C170.977 50.7699 171.588 50.276 172.388 49.9154C173.203 49.5549 174.167 49.3746 175.28 49.3746C176.926 49.3746 178.219 49.7822 179.16 50.5974C180.116 51.4126 180.665 52.4943 180.806 53.8426H177.091C177.028 53.3879 176.824 53.0274 176.479 52.7608C176.15 52.4943 175.711 52.3611 175.162 52.3611C174.692 52.3611 174.332 52.4551 174.081 52.6433C173.83 52.8157 173.704 53.0587 173.704 53.3722C173.704 53.7485 173.9 54.0307 174.292 54.2188C174.7 54.4069 175.327 54.5951 176.174 54.7832C177.146 55.034 177.937 55.2849 178.549 55.5357C179.16 55.7708 179.693 56.1628 180.148 56.7115C180.618 57.2445 180.861 57.9656 180.877 58.8749C180.877 59.6431 180.657 60.3329 180.218 60.9443C179.795 61.54 179.176 62.0103 178.361 62.3552C177.561 62.7001 176.628 62.8726 175.562 62.8726Z" fill="#00DDC6"/>
</svg>
